<svg width="661" height="496" viewBox="0 0 661 496" fill="none" xmlns="http://www.w3.org/2000/svg">
<path fill-rule="evenodd" clip-rule="evenodd" d="M452.342 209.736V154.93H453.186V210.58H355.368V209.736H452.342Z" fill="#B5CDFB"/>
<path opacity="0.3" d="M588.072 63.1779H542.144V395.442H588.072V63.1779Z" fill="#B5CDFB"/>
<path opacity="0.3" d="M534.291 63.1779H488.364V395.442H534.291V63.1779Z" fill="#B5CDFB"/>
<path fill-rule="evenodd" clip-rule="evenodd" d="M264.043 116.319H328.978V201.293H355.368V202.137H328.135V117.163H264.043V116.319Z" fill="#B5CDFB"/>
<path fill-rule="evenodd" clip-rule="evenodd" d="M452.343 146.488V104.87H453.186V146.488H452.343Z" fill="#B5CDFB"/>
<path d="M238.004 187.89H68.0605V210.514H238.004V187.89Z" fill="#9F8AFF"/>
<path d="M102.729 431.279H342.849" stroke="#005B9D" stroke-width="1.01001" stroke-miterlimit="10" stroke-linecap="round"/>
<path d="M43.391 431.279H88.5453" stroke="#005B9D" stroke-width="1.01001" stroke-miterlimit="10" stroke-linecap="round"/>
<path d="M43.733 243.767H209.223" stroke="#005B9D" stroke-width="1.24375" stroke-miterlimit="10"/>
<path d="M618.733 426.213C622.699 421.532 620.973 410.99 618.918 410.99C615.542 410.99 612.651 423.15 612.651 423.15C612.651 423.15 608.483 407.001 600.044 399.403C600.044 399.403 598.27 413.581 599.958 421.179C599.958 421.179 594.823 409.328 588.072 411.86C588.072 411.86 593.315 430.87 594.509 431.701" stroke="#005B9D" stroke-width="1.01001" stroke-miterlimit="10" stroke-linecap="round"/>
<path d="M80.6481 431.372C80.6481 431.372 75.3799 415.141 77.3179 402.776C84.2514 406.851 87.2235 411.475 87.2235 411.475C87.2235 411.475 87.939 407.001 96.3775 399.403C96.3775 399.403 98.1523 413.581 96.4642 421.179C99.5817 416.883 103.22 413.321 108.35 411.86C108.35 411.86 105.08 430.999 96.9327 431.279" stroke="#005B9D" stroke-width="1.01001" stroke-miterlimit="10" stroke-linecap="round"/>
<path fill-rule="evenodd" clip-rule="evenodd" d="M452.763 75.3008C440.58 75.3008 430.703 85.1828 430.703 97.372C430.703 109.561 440.58 119.443 452.763 119.443C464.947 119.443 474.823 109.561 474.823 97.372C474.823 85.1828 464.947 75.3008 452.763 75.3008ZM429.859 97.372C429.859 84.7157 440.114 74.4565 452.763 74.4565C465.413 74.4565 475.668 84.7157 475.668 97.372C475.668 110.027 465.413 120.287 452.763 120.287C440.114 120.287 429.859 110.027 429.859 97.372Z" fill="#B5CDFB"/>
<path d="M452.763 104.031C456.438 104.031 459.418 101.05 459.418 97.3726C459.418 93.6956 456.438 90.7146 452.763 90.7146C449.088 90.7146 446.109 93.6956 446.109 97.3726C446.109 101.05 449.088 104.031 452.763 104.031Z" fill="#9F8AFF"/>
<path fill-rule="evenodd" clip-rule="evenodd" d="M299.137 152.992C295.695 152.992 292.905 155.784 292.905 159.228C292.905 162.672 295.695 165.464 299.137 165.464C302.58 165.464 305.371 162.672 305.371 159.228C305.371 155.784 302.58 152.992 299.137 152.992ZM292.061 159.228C292.061 155.317 295.229 152.148 299.137 152.148C303.046 152.148 306.214 155.317 306.214 159.228C306.214 163.138 303.046 166.308 299.137 166.308C295.229 166.308 292.061 163.138 292.061 159.228Z" fill="#B5CDFB"/>
<path fill-rule="evenodd" clip-rule="evenodd" d="M344.573 99.8438H307.949V98.9998H345.417V159.227H344.573V99.8438Z" fill="#B5CDFB"/>
<path d="M406.72 278.377L402.574 281.859L376.271 157.925L382.362 157.458C384.451 157.298 386.33 158.728 386.733 160.786L408.679 272.826C409.085 274.896 408.334 277.022 406.72 278.377Z" fill="#9F8AFF"/>
<path d="M452.763 285.017C452.763 285.017 439.869 274.498 436.02 274.774C432.172 275.05 418.662 288.947 420.096 293.323C421.531 297.699 426.774 297.699 426.774 297.699C429.391 297.699 431.821 296.285 433.064 293.98C434.536 291.251 436.605 288.169 438.058 289.094C440.548 290.679 438.452 297.699 440.18 297.699C441.906 297.699 452.763 294.303 452.763 294.303V285.017Z" fill="#B08566"/>
<path d="M542.144 243.926L527.598 279.993C526.201 284.183 520.509 292.381 516.137 291.767L463.416 286.965" stroke="#CCCCCC" stroke-width="39.8" stroke-miterlimit="10" stroke-linecap="round"/>
<path d="M534.339 224.469C534.796 220.611 535.032 217.191 534.694 215.841C533.985 212.987 527.369 213.468 523.986 213.907C522.796 214.059 522.003 214.211 522.003 214.211L523.411 211.771V211.763L523.421 211.755L535.462 190.935L556.347 188.047L549.959 201.184C548.128 210.472 558.195 224.883 558.195 224.883L531.943 240.181C531.943 240.181 533.504 231.57 534.339 224.469Z" fill="#C79775"/>
<path d="M544.458 207.281C544.458 207.281 542.087 223.238 534.34 224.471C534.796 220.613 535.032 217.193 534.694 215.842C533.985 212.989 527.369 213.47 523.986 213.909L523.412 211.773V211.764L523.421 211.756L534.973 205.449L544.458 207.281Z" fill="#7D4921"/>
<path d="M511.328 188.648C510.868 188.648 510.424 188.396 510.2 187.958C509.881 187.336 510.128 186.573 510.75 186.254L514.563 184.301C515.184 183.981 515.948 184.228 516.267 184.851C516.586 185.473 516.339 186.236 515.716 186.555L511.904 188.508C511.719 188.603 511.522 188.648 511.328 188.648Z" fill="#383838"/>
<path d="M514.31 197.835C511.854 197.835 509.807 194.397 509.517 189.719C509.385 187.581 509.661 185.534 510.298 183.952C511.016 182.167 512.129 181.138 513.432 181.058C515.953 180.899 518.089 184.387 518.388 189.168C518.684 193.948 517.002 197.673 514.474 197.83C514.419 197.833 514.365 197.835 514.31 197.835ZM513.591 182.741C513.572 182.741 513.554 182.742 513.536 182.743C512.937 182.78 512.311 183.468 511.863 184.583C511.319 185.936 511.083 187.723 511.202 189.615C511.44 193.451 513.047 196.239 514.369 196.144C515.668 196.064 516.942 193.108 516.703 189.273C516.467 185.492 514.88 182.741 513.591 182.741Z" fill="#91826C"/>
<path d="M519.824 166.403C519.824 166.403 517.501 177.931 522.069 179.574C526.636 181.216 549.433 171.514 549.433 171.514L526.264 164.427L519.824 166.403Z" fill="#91826C"/>
<path d="M521.795 175.158C521.795 175.158 512.022 193.754 519.763 213.546C520.223 214.724 521.376 215.484 522.641 215.451C526.976 215.336 539.322 212.696 545.826 207.847L547.435 201.481L556.927 186.771C556.927 186.771 560.101 173.738 549.434 171.514C538.766 169.289 524.463 166.85 521.795 175.158Z" fill="#C79775"/>
<path d="M518.585 205.959C522.029 206.679 523.415 203.409 523.415 203.409" stroke="#383838" stroke-width="1.24375" stroke-miterlimit="10"/>
<path d="M561.422 189.707C563.819 197.019 549.457 206.195 546.545 199.247C546.393 198.884 546.823 197.534 547.38 195.786C548.756 186.127 540.334 187.157 540.005 190.256C539.921 191.041 537.769 197.052 535.372 195.626C533.846 194.722 534.681 192.392 534.335 186.406C531.829 184.456 530.461 180.775 529.718 177.474C524.428 176.831 519.348 175.751 517.82 174.696C515.627 173.184 510.487 166.017 515.931 156.214C520.58 147.848 557.127 160.208 557.701 169.47C566.012 168.955 560.511 186.102 561.169 188.897C561.253 189.167 561.337 189.436 561.422 189.707Z" fill="#9F8AFF"/>
<path d="M518.265 188.049C518.265 188.049 511.383 198.299 511.709 199.704C512.033 201.109 518.585 200.145 518.585 200.145" fill="#C79775"/>
<path d="M540.459 193.045C540.459 193.045 543.898 187.184 545.732 191.641C547.195 195.193 544.075 201.606 541.942 200.718C539.857 199.848 542.904 195.605 542.904 195.605" stroke="#383838" stroke-width="1.24375" stroke-miterlimit="10"/>
<path d="M528.839 189.813C528.645 189.813 528.448 189.768 528.263 189.673L523.544 187.256C522.922 186.937 522.675 186.174 522.994 185.551C523.313 184.929 524.077 184.682 524.698 185.001L529.417 187.419C530.039 187.738 530.286 188.501 529.967 189.123C529.742 189.56 529.299 189.813 528.839 189.813Z" fill="#383838"/>
<path d="M524.417 201.1C521.35 201.1 518.76 197.505 518.464 192.763C518.324 190.503 518.745 188.335 519.647 186.656C520.61 184.868 522.006 183.829 523.583 183.73C526.751 183.54 529.476 187.193 529.779 192.059C530.081 196.927 527.833 200.894 524.663 201.092C524.58 201.097 524.498 201.1 524.417 201.1ZM523.818 185.144C523.769 185.144 523.72 185.146 523.67 185.149C522.603 185.215 521.618 185.99 520.898 187.329C520.118 188.777 519.757 190.676 519.882 192.675C520.126 196.612 522.276 199.827 524.574 199.674C526.872 199.531 528.606 196.084 528.362 192.148C528.123 188.296 526.06 185.144 523.818 185.144Z" fill="#91826C"/>
<path d="M523.771 193.495C524.479 193.495 525.053 192.922 525.053 192.213C525.053 191.505 524.479 190.932 523.771 190.932C523.064 190.932 522.49 191.505 522.49 192.213C522.49 192.922 523.064 193.495 523.771 193.495Z" fill="#383838"/>
<path d="M513.951 191.839C514.555 191.839 515.044 191.348 515.044 190.744C515.044 190.14 514.555 189.651 513.951 189.651C513.347 189.651 512.857 190.14 512.857 190.744C512.857 191.348 513.347 191.839 513.951 191.839Z" fill="#383838"/>
<path d="M542.144 193.334C542.144 193.334 542.778 192.497 543.635 192.868" stroke="#383838" stroke-width="1.24375" stroke-miterlimit="10"/>
<path d="M388.058 296.826H383.84L375.55 241.321L390.046 231.02V233.526L379.77 243.069L388.058 296.826Z" fill="#3913B8"/>
<path d="M497.274 399.403L507.386 430.347C507.386 430.347 459.32 431.519 458.55 429.724C457.781 427.928 480.709 418.473 494.562 419.474L488.627 406.245L497.274 399.403Z" fill="#9F8AFF"/>
<path fill-rule="evenodd" clip-rule="evenodd" d="M443.298 325.946C437.4 312.451 449.791 298.148 463.98 302.075L548.597 325.488C555.334 327.352 559.286 334.328 557.423 341.069C555.559 347.81 548.587 351.764 541.849 349.9L473.603 331.016L503.033 394.042C505.991 400.379 503.256 407.916 496.922 410.876C490.589 413.837 483.056 411.1 480.097 404.762L443.361 326.089L443.298 325.946Z" fill="#3913B8"/>
<path fill-rule="evenodd" clip-rule="evenodd" d="M443.298 325.946C437.4 312.451 449.791 298.148 463.98 302.075L548.597 325.488C555.334 327.352 559.286 334.328 557.423 341.069C555.559 347.81 548.587 351.764 541.849 349.9L473.603 331.016L503.033 394.042C505.991 400.379 503.256 407.916 496.922 410.876C490.589 413.837 483.056 411.1 480.097 404.762L443.361 326.089L443.298 325.946Z" fill="black" fill-opacity="0.15"/>
<path d="M410.197 413.422L388.433 428.745C388.433 428.745 385.184 424.938 380.595 419.483C378.805 417.365 376.814 414.992 374.73 412.493C363.768 399.381 350.3 382.944 350.731 381.863C351.355 380.301 375.886 396.258 387.286 406.887C389.176 408.643 390.695 410.256 391.699 411.615L401.657 403.94L405.116 401.273L406.07 403.561L407.741 407.545L410.197 413.422Z" fill="#9F8AFF"/>
<path opacity="0.2" d="M408.236 408.731C408.236 408.731 389.487 415.618 386.088 417.685C382.689 419.752 381.45 420.505 381.45 420.505C379.661 418.386 377.806 416.177 375.722 413.678C379.244 410.602 383.116 408.381 387.285 406.888C389.175 408.643 390.694 410.256 391.698 411.615L401.655 403.94L406.069 403.561L408.236 408.731Z" fill="black"/>
<path d="M549.657 314.098L576.419 311.38C576.419 311.38 584.629 262.499 576.419 245.727C567.65 232.959 561.687 226.856 558.148 222.534C557.368 221.58 556.054 221.261 554.928 221.76L531.207 232.258C531.207 232.258 519.619 245.464 521.266 261.742C522.911 278.019 521.273 319.945 521.273 319.945L549.657 314.098Z" fill="#E6E6E6"/>
<path d="M521.577 316.462C521.578 316.462 521.578 316.462 521.578 316.461L521.577 316.462ZM521.687 316.413C521.724 316.399 521.771 316.384 521.83 316.366C522.132 316.278 522.616 316.183 523.274 316.084C524.582 315.886 526.505 315.683 528.865 315.47C532.101 315.178 536.138 314.87 540.495 314.538C542.489 314.386 544.55 314.229 546.632 314.066C553.26 313.546 560.101 312.967 565.65 312.302C568.425 311.969 570.884 311.615 572.835 311.234C574.477 310.914 575.803 310.567 576.654 310.181C576.657 310.194 576.659 310.208 576.662 310.221C576.71 310.477 576.744 310.846 576.758 311.323C576.787 312.274 576.736 313.602 576.599 315.203C576.326 318.403 575.709 322.661 574.706 327.11C573.702 331.56 572.315 336.189 570.505 340.138C568.697 344.08 566.491 347.291 563.872 349.002C560.281 350.372 555.862 350.203 551.208 349.136C546.543 348.067 541.689 346.107 537.284 343.96C532.88 341.816 528.936 339.492 526.092 337.703C524.671 336.809 523.525 336.05 522.735 335.514C522.34 335.247 522.034 335.034 521.828 334.889C521.774 334.852 521.727 334.819 521.687 334.791V316.413ZM576.573 309.919C576.573 309.919 576.574 309.92 576.575 309.922C576.574 309.92 576.573 309.919 576.573 309.919Z" fill="#3913B8" stroke="#005B9D" stroke-width="1.24375"/>
<path d="M558.084 431.279H521.799C520.4 431.279 519.267 430.144 519.267 428.746C519.267 427.347 520.4 426.213 521.799 426.213H559.571L558.084 431.279Z" fill="#3913B8"/>
<path fill-rule="evenodd" clip-rule="evenodd" d="M462.252 331.288C467.02 326.217 473.67 323.341 480.63 323.341H555.61C563.533 323.341 569.955 329.766 569.955 337.693C569.955 345.62 563.533 352.046 555.61 352.046H482.125L423.324 414.594C417.897 420.367 408.818 420.646 403.047 415.215C397.276 409.784 396.998 400.701 402.426 394.927L462.252 331.288Z" fill="#3913B8"/>
<path fill-rule="evenodd" clip-rule="evenodd" d="M462.252 331.288C467.02 326.217 473.67 323.341 480.63 323.341H555.61C563.533 323.341 569.955 329.766 569.955 337.693C569.955 345.62 563.533 352.046 555.61 352.046H482.125L423.324 414.594C417.897 420.367 408.818 420.646 403.047 415.215C397.276 409.784 396.998 400.701 402.426 394.927L462.252 331.288Z" fill="#3913B8"/>
<path d="M570.042 352.557H494.096C492.698 352.557 491.565 353.691 491.565 355.09C491.565 356.489 492.698 357.623 494.096 357.623H570.042V352.557Z" fill="#3913B8"/>
<path d="M558.504 431.337L599.226 235.51C599.508 234.15 598.644 232.817 597.288 232.52C595.913 232.219 594.556 233.1 594.269 234.479L553.558 430.255L558.504 431.337Z" fill="#3913B8"/>
<path d="M578.439 316.26H511.902C509.111 316.26 506.849 318.523 506.849 321.316C506.849 324.107 509.111 326.371 511.902 326.371H578.439V316.26Z" fill="#3913B8"/>
<path fill-rule="evenodd" clip-rule="evenodd" d="M558.504 431.337L559.568 426.217L559.57 426.213H559.569L599.226 235.51C599.508 234.151 598.644 232.817 597.288 232.52C595.912 232.219 594.556 233.1 594.269 234.479L577.263 316.261H511.902C509.111 316.261 506.848 318.524 506.848 321.316C506.848 324.108 509.111 326.371 511.902 326.371H575.16L569.715 352.557H494.095C492.697 352.557 491.564 353.691 491.564 355.09C491.564 356.489 492.697 357.623 494.095 357.623H568.661L554.398 426.213H521.797C520.399 426.213 519.266 427.347 519.266 428.746C519.266 430.145 520.399 431.279 521.797 431.279H558.083L558.092 431.247L558.504 431.337Z" fill="white" fill-opacity="0.21"/>
<path d="M417.518 300.416H367.594V293.481C367.594 292.439 368.528 291.648 369.555 291.819L416.113 298.76C416.924 298.895 417.518 299.598 417.518 300.42V300.416Z" fill="#3913B8"/>
<path d="M400.729 282.784C398.626 283.196 396.588 281.825 396.175 279.722L373.211 162.479C372.798 160.375 374.168 158.336 376.271 157.923C378.374 157.511 380.412 158.882 380.824 160.986L403.79 278.228C404.202 280.332 402.832 282.372 400.729 282.784Z" fill="#3913B8"/>
<path d="M456.227 297.699H420.582V300.102H456.227V297.699Z" fill="#3913B8"/>
<path d="M463.416 282.17C463.416 282.17 450.522 271.652 446.673 271.928C442.825 272.204 425.458 291.731 426.894 296.108C428.328 300.484 434.044 297.699 434.044 297.699C436.662 297.699 441.419 296.456 442.662 294.151C444.134 291.421 451.036 297.699 452.763 297.699C456.228 297.699 463.416 291.457 463.416 291.457V282.17Z" fill="#C79775"/>
<path d="M555.61 251.119L542.264 291.175C540.868 295.366 535.176 303.564 530.804 302.95L470.775 288.708" stroke="#F2F2F2" stroke-width="39.8" stroke-miterlimit="10" stroke-linecap="round"/>
<path d="M452.94 431.709C452.94 432.874 451.994 433.812 450.83 433.812C413.903 433.702 386.689 433.373 381.483 432.976C379.23 432.798 377.466 432.132 376.091 430.932C372.833 428.088 372.588 423.106 372.918 420.878C373.812 414.765 381.095 412.198 388.816 409.48C392.604 408.137 396.52 406.761 400.039 404.912C416.756 396.14 429.819 374.788 426.907 360.977C424.578 349.917 411.81 343.331 399.465 336.965C386.934 330.498 367.256 324.394 368.665 313.747C369.045 310.919 370.066 308.15 371.737 305.482H390.579C388.081 307.863 385.533 310.649 384.74 314.102C383.466 319.649 389.744 327.197 401.397 333.216C414.005 339.717 428.291 347.088 431.033 360.107C432.696 367.992 430.274 377.676 424.207 387.377C418.511 396.478 410.418 404.229 401.997 408.652C398.208 410.636 394.149 412.072 390.216 413.456C383.736 415.744 377.618 417.897 377.095 421.485C376.892 422.853 377.061 426.179 378.859 427.75C379.534 428.333 380.496 428.661 381.812 428.763C386.917 429.16 414.013 429.481 450.838 429.59C452.003 429.59 452.948 430.545 452.94 431.709Z" fill="#9F8AFF"/>
<path opacity="0.71" d="M487.2 300.417H349.654V305.482H487.2V300.417Z" fill="#B5CDFB"/>
<path fill-rule="evenodd" clip-rule="evenodd" d="M589.764 197.473L583.583 222.566L573.771 220.147L585.071 174.272C585.739 171.561 588.476 169.904 591.186 170.573C593.896 171.241 595.551 173.98 594.883 176.69L590.17 195.824L598.494 196.956L588.082 244.108C587.981 244.563 587.531 244.851 587.076 244.75C586.621 244.649 586.333 244.199 586.434 243.743L596.451 198.382L589.764 197.473Z" fill="#3913B8"/>
<path fill-rule="evenodd" clip-rule="evenodd" d="M589.764 197.473L583.583 222.566L573.771 220.147L585.071 174.272C585.739 171.561 588.476 169.904 591.186 170.573C593.896 171.241 595.551 173.98 594.883 176.69L590.17 195.824L598.494 196.956L588.082 244.108C587.981 244.563 587.531 244.851 587.076 244.75C586.621 244.649 586.333 244.199 586.434 243.743L596.451 198.382L589.764 197.473Z" fill="white" fill-opacity="0.21"/>
<path d="M554.2 365.889H562.602L552.388 412.146" stroke="#005B9D" stroke-width="1.01001" stroke-miterlimit="10" stroke-linecap="round"/>
<path d="M606.942 430.723H652.737" stroke="#005B9D" stroke-width="1.01001" stroke-miterlimit="10" stroke-linecap="round"/>
<path d="M519.267 430.723H590.771" stroke="#005B9D" stroke-width="1.01001" stroke-miterlimit="10" stroke-linecap="round"/>
<path fill-rule="evenodd" clip-rule="evenodd" d="M299.139 159.651H188.324V158.807H299.139V159.651Z" fill="#B5CDFB"/>
<path d="M395.708 62.1881H213.24V71.9225H395.708V62.1881Z" fill="#9F8AFF"/>
<path d="M515.141 97.3723H606.942" stroke="#78D2EE" stroke-width="1.24375" stroke-miterlimit="10"/>
<path d="M515.141 90.7146H606.942" stroke="#78D2EE" stroke-width="1.24375" stroke-miterlimit="10"/>
<path d="M112.602 152.57V135.783H130.244" stroke="#005B9D" stroke-width="1.24375" stroke-miterlimit="10"/>
<path d="M264.043 312.093V362.68" stroke="#005B9D" stroke-width="1.24375" stroke-miterlimit="10"/>
<path d="M361.045 431.701C361.045 431.701 346.278 415.552 349.653 415.552C353.029 415.552 362.311 423.15 362.311 423.15C362.311 423.15 366.48 407.001 374.918 399.403C374.918 399.403 376.692 413.581 375.005 421.179C375.005 421.179 380.139 409.328 386.89 411.86C386.89 411.86 381.647 430.87 380.453 431.701" stroke="#005B9D" stroke-width="1.01001" stroke-miterlimit="10" stroke-linecap="round"/>
</svg>
