<svg width="581" height="1328" viewBox="0 0 581 1328" fill="none" xmlns="http://www.w3.org/2000/svg">
<path fill-rule="evenodd" clip-rule="evenodd" d="M462.993 1050.9C391.377 1046.71 311.417 1064.4 258.379 1019.51C195.027 965.899 117.769 892.329 140.863 778.29C164.57 661.22 304.785 608.225 363.862 498.618C426.158 383.041 394.518 217.544 486.199 137.583C574.915 60.2091 664.903 136.27 745.894 165.425C808.881 188.099 856.21 235.02 901.81 287.194C944.912 336.51 974.655 396.481 1004.15 460.907C1045.57 551.408 1136.94 617.898 1109.72 741.391C1083.16 861.858 973.831 967.737 879.287 1027.3C794.161 1080.93 717.046 1036.72 633.409 1041.47C575.413 1044.75 519.347 1054.2 462.993 1050.9Z" stroke="url(#paint0_linear)" stroke-width="5" stroke-linecap="round" stroke-dasharray="100 50 30 100 50 30"/>
<path fill-rule="evenodd" clip-rule="evenodd" d="M470.255 1083.56C392.618 1078.08 306.531 1095.75 247.924 1047.25C177.92 989.313 92.3312 909.951 114.297 788.979C136.848 664.792 287.222 610.429 348.259 494.687C412.62 372.64 373.97 196.15 471.089 112.409C565.066 31.3768 664.501 113.57 752.95 145.741C821.737 170.761 874.218 221.348 924.968 277.498C972.937 330.571 1006.73 394.787 1040.37 463.739C1087.62 560.598 1188.29 632.63 1162.1 763.599C1136.56 891.358 1021.03 1002.42 920.268 1064.42C829.544 1120.25 744.891 1072.12 654.48 1075.97C591.786 1078.63 531.346 1087.88 470.255 1083.56Z" stroke="url(#paint1_linear)" stroke-width="10" stroke-linecap="round" stroke-dasharray="100 50 30 100 50 30"/>
<path fill-rule="evenodd" clip-rule="evenodd" d="M440.266 1098.77C362.484 1094.18 275.855 1113.65 217.85 1064.31C148.564 1005.37 63.991 924.483 87.9627 799.069C112.572 670.32 264.269 612.004 327.345 491.454C393.857 364.337 357.92 182.349 456.673 94.3916C552.232 9.27971 650.648 92.9 738.847 124.941C807.439 149.859 859.266 201.445 909.268 258.809C956.531 313.03 989.395 378.972 1022.03 449.814C1067.87 549.328 1167.69 622.423 1139.32 758.235C1111.65 890.72 993.994 1007.18 891.937 1072.71C800.046 1131.71 715.911 1083.12 625.166 1088.35C562.241 1091.98 501.472 1102.38 440.266 1098.77Z" stroke="url(#paint2_linear)" stroke-width="20" stroke-linecap="round" stroke-dasharray="100 50 30 100 50 30"/>
<defs>
<linearGradient id="paint0_linear" x1="500.167" y1="1372.76" x2="654.749" y2="-257.327" gradientUnits="userSpaceOnUse">
<stop stop-color="#3913B8"/>
<stop offset="1" stop-color="#3913B8" stop-opacity="0"/>
</linearGradient>
<linearGradient id="paint1_linear" x1="519.054" y1="1426.45" x2="702.221" y2="-298.958" gradientUnits="userSpaceOnUse">
<stop stop-color="#3913B8"/>
<stop offset="1" stop-color="#3913B8" stop-opacity="0"/>
</linearGradient>
<linearGradient id="paint2_linear" x1="483.714" y1="1452.71" x2="655.175" y2="-338.085" gradientUnits="userSpaceOnUse">
<stop stop-color="#3913B8"/>
<stop offset="1" stop-color="#3913B8" stop-opacity="0"/>
</linearGradient>
</defs>
</svg>
